<?xml version="1.0" encoding="UTF-8"?>
<svg version="1.1" viewBox="0 0 744.09 1052.4" xmlns="http://www.w3.org/2000/svg">
 <path d="m114.1 2.3802v495.58" fill="#faa" stroke="#8a9d8e" stroke-linecap="round" stroke-width="3"/>
 <g fill="#d40000">
  <g transform="matrix(.36511 0 0 .36511 -17.341 229.9)">
   <path d="m360 332.36s-20-40 60-80c49.975-15.135 140 0 140 80 0 140-120 200-200 280-80-80-200-140-200-280 0-80 95.349-97.634 140-80 80 40 60 80 60 80z" fill="#d40000"/>
  </g>
  <g transform="matrix(.20482 0 0 .20482 40.363 174.15)">
   <path d="m360 332.36s-20-40 60-80c49.975-15.135 140 0 140 80 0 140-120 200-200 280-80-80-200-140-200-280 0-80 95.349-97.634 140-80 80 40 60 80 60 80z" fill="#d40000"/>
  </g>
  <g transform="matrix(.43254 0 0 .43254 -41.616 -66.837)">
   <path d="m360 332.36s-20-40 60-80c49.975-15.135 140 0 140 80 0 140-120 200-200 280-80-80-200-140-200-280 0-80 95.349-97.634 140-80 80 40 60 80 60 80z" fill="#d40000"/>
  </g>
  <g transform="matrix(.14851 0 0 .14851 60.638 449.81)">
   <path d="m360 332.36s-20-40 60-80c49.975-15.135 140 0 140 80 0 140-120 200-200 280-80-80-200-140-200-280 0-80 95.349-97.634 140-80 80 40 60 80 60 80z" fill="#d40000"/>
  </g>
 </g>
 <g fill="#800000">
  <path transform="matrix(.50768 0 0 .50768 -170.2 189.36)" d="m580 252.36a20 20 0 1 1 -40 0 20 20 0 1 1 40 0z"/>
  <path transform="matrix(.50768 0 0 .50768 -170.2 85.401)" d="m580 252.36a20 20 0 1 1 -40 0 20 20 0 1 1 40 0z"/>
  <path transform="matrix(.50768 0 0 .50768 -170.2 344.85)" d="m580 252.36a20 20 0 1 1 -40 0 20 20 0 1 1 40 0z"/>
 </g>
</svg>
